<?xml version="1.0" standalone="no"?>
<!DOCTYPE svg PUBLIC "-//W3C//DTD SVG 20010904//EN"
 "http://www.w3.org/TR/2001/REC-SVG-20010904/DTD/svg10.dtd">
<svg version="1.0" xmlns="http://www.w3.org/2000/svg"
 width="473.000000pt" height="475.000000pt" viewBox="0 0 473.000000 475.000000"
 preserveAspectRatio="xMidYMid meet">

<g transform="translate(0.000000,475.000000) scale(0.100000,-0.100000)"
fill="#000000" stroke="none">
<path d="M2337 4586 l-18 -56 -56 0 -56 0 43 -31 c45 -33 45 -32 24 -115 l-7
-28 40 32 c23 18 44 32 48 32 4 0 25 -14 48 -32 l40 -32 -7 28 c-21 83 -21 82
24 115 l43 31 -56 0 -55 0 -19 56 -19 56 -17 -56z"/>
<path d="M1814 4451 c-94 -55 -142 -135 -95 -161 27 -14 157 -11 206 4 l40 13
-30 12 c-19 8 -59 11 -107 9 -43 -3 -78 -2 -77 1 0 3 19 20 42 36 54 39 106
115 80 115 -5 0 -31 -13 -59 -29z"/>
<path d="M2870 4463 c0 -10 29 -45 64 -79 l63 -61 -76 5 c-47 2 -87 -1 -106
-9 l-30 -12 40 -13 c49 -15 164 -18 200 -4 23 9 26 14 20 38 -8 34 -56 86
-114 123 -52 34 -61 35 -61 12z"/>
<path d="M2040 4450 c-80 -14 -232 -81 -217 -96 10 -10 169 35 234 66 87 40
83 47 -17 30z"/>
<path d="M2630 4455 c0 -16 161 -77 263 -99 75 -17 -24 48 -118 77 -52 16
-145 30 -145 22z"/>
<path d="M1645 4384 c-61 -41 -91 -72 -110 -115 -15 -31 -16 -42 -6 -52 17
-17 176 -14 226 5 39 15 39 15 16 28 -26 13 -148 10 -186 -6 -10 -4 0 9 23 30
48 44 85 99 80 121 -2 13 -10 10 -43 -11z"/>
<path d="M3050 4386 c0 -18 62 -98 97 -126 28 -21 28 -21 3 -15 -53 15 -157
17 -181 4 -23 -12 -23 -12 14 -25 52 -18 149 -28 193 -20 35 7 36 9 31 41 -7
42 -45 94 -95 129 -42 29 -62 33 -62 12z"/>
<path d="M1462 4291 c-72 -53 -119 -144 -87 -171 31 -25 245 9 245 40 0 22
-115 18 -195 -7 -13 -4 -4 12 28 47 74 82 80 142 9 91z"/>
<path d="M3220 4310 c0 -21 26 -68 65 -114 29 -36 34 -48 20 -42 -65 25 -185
29 -185 6 0 -19 97 -45 170 -45 69 0 75 2 78 22 5 33 -32 96 -84 142 -47 41
-64 49 -64 31z"/>
<path d="M1295 4189 c-48 -43 -87 -111 -83 -146 3 -28 4 -28 73 -28 72 0 191
37 179 56 -9 15 -106 9 -160 -9 l-51 -18 44 59 c27 38 43 70 43 88 0 16 -2 29
-5 29 -2 0 -20 -14 -40 -31z"/>
<path d="M3390 4201 c0 -31 15 -63 53 -113 l35 -46 -54 19 c-53 19 -154 26
-154 11 0 -19 98 -54 167 -59 62 -5 73 -3 79 11 12 31 -15 93 -62 145 -49 55
-64 62 -64 32z"/>
<path d="M1135 4074 c-44 -48 -65 -93 -65 -138 0 -46 16 -53 89 -38 64 14 161
58 161 74 0 18 -112 3 -158 -21 -23 -12 -42 -19 -42 -16 0 3 13 29 29 58 55
100 47 148 -14 81z"/>
<path d="M3543 4073 c4 -20 20 -59 37 -86 16 -26 30 -50 30 -53 0 -2 -19 5
-41 17 -48 24 -143 37 -153 21 -9 -15 111 -71 168 -78 76 -11 94 21 57 102
-20 44 -77 114 -93 114 -7 0 -8 -14 -5 -37z"/>
<path d="M994 3958 c-56 -67 -80 -153 -49 -178 23 -19 98 -5 168 32 148 80 33
79 -126 0 -5 -2 4 19 18 47 29 55 45 131 27 131 -6 0 -23 -15 -38 -32z"/>
<path d="M2215 3980 c-16 -7 -12 -9 19 -9 37 -1 38 -2 20 -15 -14 -11 -16 -17
-7 -26 8 -9 18 -8 42 6 24 14 34 15 43 6 15 -15 -35 -35 -74 -29 -58 8 -23
-27 37 -38 22 -3 56 -16 75 -28 l35 -21 -20 23 c-11 13 -31 27 -44 33 l-24 9
21 15 c31 21 27 43 -10 59 -31 13 -28 14 67 14 l100 0 -52 -20 c-29 -11 -53
-24 -53 -29 0 -5 16 -14 35 -20 20 -7 47 -24 60 -38 l25 -27 0 53 c0 54 14 68
40 37 10 -13 9 -15 -10 -15 -13 0 -20 -5 -17 -12 2 -7 15 -13 28 -13 33 0 38
38 7 59 -22 16 -22 16 17 16 30 0 36 3 25 10 -18 12 -357 12 -385 0z m275 -55
c0 -23 -2 -24 -25 -13 -29 13 -32 25 -7 31 30 8 32 7 32 -18z"/>
<path d="M3685 3980 c-10 -16 4 -70 34 -125 l27 -51 -52 28 c-53 29 -154 49
-154 32 0 -13 99 -72 141 -84 19 -6 48 -10 65 -10 38 0 48 24 35 82 -15 64
-81 153 -96 128z"/>
<path d="M1991 3944 c-51 -13 -103 -22 -114 -18 -15 5 -19 3 -14 -9 4 -11 -3
-17 -26 -21 -76 -15 -286 -122 -409 -210 -62 -44 -73 -62 -33 -52 85 21 79 21
61 -6 -27 -41 8 -54 44 -16 18 19 24 21 50 11 17 -6 30 -9 30 -6 0 3 -13 25
-30 50 -42 62 -41 65 19 78 l35 7 -17 -25 c-20 -32 -4 -42 42 -24 22 8 36 8
57 -1 14 -7 29 -11 31 -8 3 3 -8 30 -25 60 l-30 56 55 24 c73 34 84 35 94 8 8
-21 6 -23 -12 -17 -45 15 -105 -38 -69 -60 15 -9 52 15 46 31 -10 27 35 15 65
-17 16 -17 29 -30 29 -28 0 2 -9 28 -20 57 -26 67 -25 72 5 72 21 0 27 -7 38
-47 8 -26 19 -49 25 -51 16 -5 15 11 -3 55 -18 43 -19 73 -2 73 6 0 23 3 37 6
21 5 22 4 8 -6 -25 -15 -23 -57 2 -65 27 -9 60 3 60 21 0 17 -37 19 -43 2 -2
-7 -8 -10 -13 -5 -4 4 0 15 9 24 13 14 21 14 42 5 21 -10 25 -9 25 3 0 31 29
14 36 -20 3 -19 13 -40 22 -47 13 -11 15 -10 10 3 -4 9 -10 37 -13 63 -6 39
-4 49 11 61 18 14 18 14 -1 14 -11 0 -62 -11 -114 -25z m54 -11 c-11 -3 -24
-9 -29 -13 -5 -5 -16 -6 -25 -2 -13 5 -11 8 9 13 14 4 34 7 45 7 l20 0 -20 -5z
m-382 -178 l17 -35 -30 0 c-33 0 -35 3 -20 31 9 16 7 19 -12 19 -19 0 -20 2
-8 10 25 16 36 11 53 -25z m-149 -76 c22 -37 16 -47 -16 -25 -12 9 -32 16 -43
16 -19 0 -18 2 5 20 32 25 33 25 54 -11z"/>
<path d="M2696 3961 c5 -5 20 -11 34 -13 14 -1 23 -7 20 -13 -3 -5 -14 -9 -25
-7 -19 2 -19 2 -3 -14 14 -14 22 -15 42 -6 19 9 25 8 30 -4 3 -9 -1 -14 -12
-14 -9 0 -23 -4 -31 -9 -12 -8 -7 -14 22 -31 45 -27 48 -42 6 -33 -27 5 -31 3
-27 -13 2 -13 13 -20 35 -22 20 -2 39 -12 48 -25 11 -15 15 -17 15 -6 0 8 -5
20 -11 26 -12 12 -4 78 10 88 5 2 14 -2 21 -10 10 -12 9 -15 -4 -15 -9 0 -16
-4 -16 -10 0 -17 40 -11 47 7 4 10 -1 22 -14 33 -14 11 -18 21 -13 30 7 11 16
11 56 0 41 -12 44 -15 25 -21 -30 -12 -37 -36 -16 -59 18 -20 65 -28 65 -11 0
16 -27 31 -44 25 -9 -3 -16 -1 -16 5 0 17 50 13 56 -4 4 -10 13 -13 25 -10 27
9 34 -17 14 -55 -10 -19 -13 -36 -8 -41 6 -6 21 15 38 50 24 52 31 59 47 50
10 -6 18 -6 18 -1 0 19 -163 80 -307 116 -108 28 -143 32 -127 17z m149 -40
c10 -17 -11 -21 -31 -6 -18 14 -18 14 3 15 12 0 24 -4 28 -9z m185 -57 c22 -9
37 -21 34 -26 -4 -6 -10 -6 -17 1 -6 6 -17 11 -25 11 -7 0 -20 7 -28 15 -19
19 -14 19 36 -1z m-210 -10 c0 -14 -3 -14 -15 -4 -8 7 -15 14 -15 16 0 2 7 4
15 4 8 0 15 -7 15 -16z m-30 -54 c0 -5 -4 -10 -10 -10 -5 0 -10 5 -10 10 0 6
5 10 10 10 6 0 10 -4 10 -10z"/>
<path d="M862 3833 c-72 -105 -66 -214 12 -197 52 11 186 88 186 107 0 24
-114 -9 -167 -49 -18 -14 -33 -24 -33 -22 0 2 9 27 20 56 21 54 27 132 11 132
-5 0 -18 -12 -29 -27z"/>
<path d="M3817 3840 c-6 -24 9 -92 29 -131 18 -35 14 -36 -34 -5 -39 26 -128
53 -139 42 -18 -18 110 -98 178 -111 33 -6 37 -4 48 23 15 36 2 95 -35 160
-27 46 -39 52 -47 22z"/>
<path d="M3202 3738 c-30 -30 -9 -69 56 -102 21 -11 32 -24 32 -39 1 -20 3
-20 29 11 15 18 34 44 42 58 12 24 12 28 -10 45 -37 30 -101 23 -101 -11 0
-10 7 -21 16 -24 26 -10 36 -7 31 8 -7 17 10 25 36 18 22 -6 21 -11 -7 -45
l-23 -29 -47 33 c-41 30 -62 69 -36 69 6 0 10 5 10 10 0 14 -13 13 -28 -2z"/>
<path d="M730 3669 c-16 -35 -30 -78 -30 -96 0 -42 19 -83 39 -83 28 0 135 57
176 93 l40 36 -33 1 c-36 0 -104 -30 -139 -63 -31 -27 -37 -18 -18 27 19 44
22 123 7 138 -8 8 -20 -6 -42 -53z"/>
<path d="M2375 3705 c-3 -14 -7 -37 -10 -51 -8 -37 -45 -29 -67 15 -30 60 -40
62 -38 6 4 -92 -3 -96 -67 -33 -23 23 -45 40 -47 37 -2 -2 4 -27 14 -55 26
-75 14 -86 -51 -51 -28 16 -53 26 -56 24 -2 -3 8 -23 22 -46 34 -50 28 -76
-15 -67 -17 3 -45 9 -62 12 l-33 5 44 -39 c58 -53 52 -72 -25 -72 -69 0 -69
-17 0 -42 27 -9 51 -19 53 -22 12 -11 -19 -34 -62 -46 -60 -17 -64 -27 -13
-35 96 -15 104 -36 31 -75 -63 -33 -67 -50 -11 -39 111 21 129 -3 52 -69 -69
-59 -51 -68 41 -21 113 58 112 56 79 120 -42 79 -45 162 -10 234 84 170 315
209 442 73 81 -86 96 -189 44 -300 -28 -59 -29 -64 -13 -77 27 -20 145 -72
151 -66 3 3 -11 22 -31 43 -20 21 -37 46 -37 56 0 17 6 18 65 11 75 -8 84 3
25 30 -22 10 -45 24 -51 32 -19 22 8 43 55 43 22 0 48 4 56 10 11 7 9 11 -13
19 -16 6 -35 11 -43 11 -23 0 -54 19 -54 34 0 7 28 26 63 41 l62 29 -70 6
c-88 6 -94 23 -28 70 55 40 44 48 -31 26 -80 -24 -87 -4 -26 70 22 27 36 50
31 52 -5 2 -31 -11 -59 -27 -47 -30 -82 -39 -82 -23 0 4 9 31 20 61 12 29 18
56 14 60 -3 3 -23 -13 -44 -36 -54 -62 -70 -58 -70 17 0 33 -4 60 -10 60 -5 0
-18 -20 -28 -44 -11 -24 -25 -47 -31 -51 -18 -11 -41 14 -41 45 0 57 -25 82
-35 35z"/>
<path d="M3936 3714 c-10 -27 -7 -68 10 -118 9 -26 14 -49 11 -52 -2 -3 -17 6
-33 19 -36 30 -98 57 -132 57 l-26 0 34 -35 c36 -37 140 -95 171 -95 44 0 52
96 15 176 -27 58 -41 71 -50 48z"/>
<path d="M1630 3674 c0 -9 5 -14 12 -12 18 6 21 28 4 28 -9 0 -16 -7 -16 -16z"/>
<path d="M3390 3663 c0 -10 -3 -41 -6 -69 -5 -45 -3 -54 21 -82 33 -39 87 -45
105 -12 14 26 5 40 -26 40 -27 0 -31 12 -9 30 12 10 23 6 61 -25 32 -26 43
-32 35 -18 -10 20 -163 153 -174 153 -3 0 -6 -8 -7 -17z m55 -38 c16 -13 26
-28 21 -32 -4 -4 -12 0 -17 10 -6 9 -17 17 -24 17 -20 0 -19 -29 0 -36 8 -4
15 -14 15 -23 0 -22 19 -41 43 -41 10 0 15 -4 12 -10 -10 -16 -51 -12 -68 8
-24 27 -37 69 -31 102 8 36 11 36 49 5z"/>
<path d="M630 3538 c-62 -141 -13 -228 93 -164 49 29 117 90 117 105 0 27 -98
-14 -149 -62 l-33 -32 8 45 c12 64 11 127 -4 142 -9 9 -16 1 -32 -34z"/>
<path d="M1225 3510 c-38 -38 -75 -70 -82 -70 -19 0 -16 -17 4 -29 20 -11 20
-10 -22 -31 -19 -10 -34 -27 -40 -48 -5 -17 -16 -34 -25 -37 -19 -6 -81 -112
-139 -235 -36 -77 -97 -262 -116 -349 -9 -44 11 -33 32 18 l16 36 11 -32 c12
-35 29 -33 40 4 4 12 22 35 41 52 38 33 38 33 -17 50 -39 13 -48 30 -24 50 11
9 12 6 8 -15 -4 -20 -1 -25 9 -22 8 2 15 19 17 36 4 39 -17 43 -50 10 -14 -14
-19 -16 -15 -6 3 9 11 34 18 57 14 47 21 51 37 16 23 -51 112 -19 112 41 0 29
-17 28 -34 0 -8 -14 -8 -20 2 -23 17 -7 5 -23 -18 -23 -30 0 -50 28 -50 71 0
37 2 39 30 39 74 0 140 55 140 117 0 59 -68 58 -97 -1 -26 -57 1 -90 33 -41
13 20 14 28 4 40 -10 12 -9 16 5 21 43 17 33 -64 -11 -93 -23 -15 -94 -35 -94
-27 0 13 95 179 117 204 2 2 8 -2 13 -10 8 -13 12 -12 25 5 12 15 18 17 22 7
10 -25 33 9 33 49 0 46 12 49 55 14 28 -23 28 -25 12 -43 -20 -22 -22 -42 -4
-42 16 0 47 32 47 48 0 7 9 12 19 12 11 0 23 5 27 12 5 8 -1 9 -22 5 -24 -4
-37 2 -77 37 l-48 43 47 52 c26 28 48 50 50 48 2 -1 -8 -25 -22 -52 -14 -29
-20 -51 -14 -53 5 -2 29 6 53 17 25 12 51 18 65 15 32 -9 27 5 -20 53 -35 36
-39 44 -28 58 7 8 8 15 3 15 -4 0 -40 -31 -78 -70z m83 -12 c18 -18 15 -25
-17 -36 -29 -10 -29 -10 -19 19 11 32 18 35 36 17z m-187 -171 c-16 -16 -26 0
-10 19 9 11 15 12 17 4 2 -6 -1 -17 -7 -23z m-256 -477 c-5 -17 -1 -21 24 -26
40 -8 43 -14 20 -43 -14 -17 -19 -19 -19 -8 0 22 -18 31 -35 17 -8 -7 -15 -9
-15 -4 0 17 21 84 26 84 3 0 2 -9 -1 -20z"/>
<path d="M4045 3560 c-10 -31 -8 -97 4 -137 5 -18 8 -33 6 -33 -1 0 -25 18
-51 40 -48 40 -108 65 -126 53 -24 -14 108 -120 167 -133 35 -8 37 -7 51 26 8
18 14 42 14 52 0 28 -28 115 -43 137 -14 18 -15 18 -22 -5z"/>
<path d="M3630 3460 c0 -7 16 -31 35 -54 44 -54 44 -64 3 -33 -66 49 -85 40
-52 -24 10 -20 13 -41 8 -62 l-7 -31 36 27 c41 31 52 33 61 11 10 -25 -4 -37
-19 -17 -13 17 -14 17 -21 -1 -5 -13 -1 -23 11 -32 24 -18 43 -2 47 39 l3 32
28 -42 c15 -24 27 -45 27 -48 0 -3 -13 -5 -29 -5 -50 0 -78 -62 -47 -102 19
-25 38 -22 34 5 -2 14 -9 21 -21 21 -9 -1 -17 2 -17 7 0 14 39 49 54 49 28 0
75 -52 105 -115 33 -69 37 -85 21 -85 -5 0 -10 7 -10 15 0 8 -4 23 -8 33 -5 9
-15 31 -23 47 -11 21 -22 30 -39 30 -33 0 -39 -42 -11 -76 18 -22 20 -22 26
-6 5 11 1 25 -10 37 -16 18 -16 20 -2 20 17 0 31 -34 25 -60 -2 -8 4 -14 12
-15 30 0 20 -30 -17 -50 -20 -11 -38 -26 -41 -33 -3 -11 12 -7 114 34 6 3 16
-12 23 -33 7 -21 14 -43 17 -49 3 -6 -5 -10 -18 -10 -18 1 -24 -5 -26 -26 -2
-15 2 -36 7 -47 7 -12 7 -22 2 -26 -6 -3 -15 3 -20 14 -17 31 -13 79 9 101 11
11 20 22 20 25 0 12 -21 4 -40 -15 -41 -41 -13 -165 33 -147 19 7 22 48 6 79
-9 17 -8 19 7 16 13 -2 18 -15 20 -59 3 -50 1 -56 -14 -52 -20 5 -71 -31 -60
-42 3 -4 16 -2 27 5 16 8 27 8 42 -1 25 -13 43 5 33 31 -3 8 -7 31 -10 50 -3
29 0 25 16 -20 10 -30 19 -63 19 -73 1 -10 5 -16 10 -12 12 7 -38 195 -83 308
-20 49 -56 126 -80 172 -66 119 -216 325 -216 295z m44 -119 c6 -9 -21 -37
-28 -30 -2 2 -6 17 -10 32 -6 26 -5 27 13 17 11 -5 22 -14 25 -19z"/>
<path d="M1293 3425 c-3 -9 -3 -18 0 -21 9 -9 27 6 27 22 0 19 -19 18 -27 -1z"/>
<path d="M2393 3374 c-67 -76 -78 -100 -62 -140 l11 -29 18 40 c10 22 36 57
58 79 66 63 95 29 51 -61 -15 -31 -36 -52 -77 -78 -96 -59 -102 -66 -102 -127
0 -83 -10 -127 -31 -133 -10 -3 -51 1 -91 9 -104 21 -226 22 -348 3 -139 -23
-159 -30 -206 -78 -52 -54 -96 -75 -172 -84 -34 -4 -69 -13 -77 -21 -23 -23
-25 -99 -17 -604 l7 -485 295 5 c390 7 622 5 750 -4 94 -7 110 -6 157 13 51
20 60 20 305 10 139 -5 314 -11 388 -12 l135 -2 3 554 c1 343 -1 558 -7 564
-6 6 -39 9 -74 8 -61 -1 -67 1 -113 36 -98 77 -163 104 -294 123 -82 11 -87
11 -212 -21 -164 -43 -162 -44 -166 86 l-3 97 -39 15 c-22 9 -40 22 -40 29 0
6 16 32 36 55 45 54 57 84 48 123 -8 41 -42 96 -59 96 -8 0 -40 -30 -72 -66z
m75 -303 c11 -12 13 -40 8 -116 -3 -55 -2 -106 3 -114 7 -11 28 -6 112 24 92
33 118 38 225 42 136 6 218 -10 260 -52 l24 -24 0 -389 c0 -287 -3 -391 -12
-400 -9 -9 -50 -10 -152 -6 -123 6 -152 4 -229 -15 -49 -11 -126 -37 -173 -57
-46 -20 -90 -34 -99 -30 -13 5 -15 63 -17 433 -3 393 -4 428 -20 431 -16 3
-17 -27 -20 -407 -3 -349 -5 -413 -18 -425 -13 -13 -26 -12 -105 11 -81 22
-114 25 -325 30 -157 4 -237 9 -242 17 -4 6 -8 189 -8 407 0 464 -7 433 106
455 84 16 303 18 376 3 29 -6 79 -23 111 -37 68 -29 82 -22 72 38 -14 77 -16
159 -6 178 18 34 103 36 129 3z m729 -307 c13 -20 18 -61 24 -192 15 -359 19
-627 10 -642 -13 -20 -38 -5 -69 41 l-23 33 3 381 c2 209 7 386 11 393 12 18
25 15 44 -14z m-1563 -11 c3 -10 5 -184 5 -387 0 -378 -3 -412 -40 -443 -38
-31 -40 -11 -37 409 3 427 4 438 49 438 10 0 20 -8 23 -17z m1704 -15 c6 -9
11 -187 14 -499 3 -420 1 -488 -12 -504 -14 -17 -30 -18 -220 -12 -113 4 -278
12 -366 19 -156 11 -162 11 -195 -9 -50 -30 -102 -35 -214 -19 -84 12 -165 13
-512 4 -329 -8 -416 -8 -428 2 -23 19 -23 955 0 987 19 27 67 38 96 23 l22
-12 -4 -474 c-4 -414 -2 -476 11 -485 9 -5 47 -7 90 -4 41 3 201 14 356 26
l281 21 44 -22 c61 -32 103 -40 147 -28 20 6 213 13 429 17 215 3 394 9 398
13 4 3 1 216 -6 472 -9 373 -9 469 1 481 15 18 54 20 68 3z m-288 -759 c49
-11 75 -31 116 -90 47 -68 42 -69 -265 -70 -146 0 -306 -4 -356 -8 -49 -5 -96
-6 -103 -3 -7 2 -12 16 -10 30 2 19 17 33 63 58 66 37 188 81 263 94 56 11
228 4 292 -11z m-882 -30 c84 -13 188 -60 197 -89 11 -36 -8 -45 -55 -26 -39
15 -55 15 -213 1 -257 -22 -433 -33 -461 -28 -31 6 -32 21 -7 71 24 48 52 72
93 83 40 10 358 2 446 -12z"/>
<path d="M1900 2492 c0 -4 4 -12 9 -17 5 -6 16 -35 26 -65 30 -95 107 -151
145 -105 17 20 35 5 52 -43 12 -35 13 -31 18 83 l5 120 28 3 c23 3 26 6 16 18
-9 11 -43 14 -155 14 -79 0 -144 -4 -144 -8z m228 -92 c3 -69 -9 -74 -25 -11
-11 45 -52 76 -87 67 -19 -5 -26 -13 -26 -31 0 -28 33 -43 56 -24 13 10 17 10
25 -2 31 -49 -32 -82 -80 -41 -11 9 -29 39 -40 65 l-21 48 98 -3 97 -3 3 -65z"/>
<path d="M2620 2485 c9 -10 32 -15 76 -15 35 0 64 -4 64 -8 0 -5 -17 -17 -37
-26 -21 -9 -49 -26 -62 -37 l-24 -20 23 -24 c13 -14 31 -25 40 -25 19 0 51
-32 73 -75 16 -29 16 -28 17 62 0 50 4 94 8 97 11 6 52 -21 52 -35 0 -5 -9 -9
-21 -9 -30 0 -23 -54 8 -58 27 -4 45 32 36 69 -7 29 -42 69 -60 69 -7 0 -13 5
-13 10 0 6 25 10 56 10 49 0 55 2 44 15 -10 12 -40 15 -152 15 -124 0 -139 -2
-128 -15z m138 -134 c-3 -18 -4 -18 -32 4 l-29 23 29 15 c27 14 29 14 32 -4 2
-10 2 -28 0 -38z"/>
<path d="M536 3383 c-24 -69 -21 -136 7 -167 21 -24 24 -25 61 -11 57 20 178
145 141 145 -23 0 -88 -38 -123 -73 l-44 -42 7 61 c5 45 3 71 -9 97 -8 21 -17
37 -20 37 -2 0 -11 -21 -20 -47z"/>
<path d="M4142 3418 c-18 -22 -25 -97 -14 -147 l10 -44 -46 46 c-43 42 -118
85 -129 73 -17 -17 110 -140 154 -149 63 -12 89 71 56 177 -15 49 -20 56 -31
44z"/>
<path d="M464 3258 c-4 -6 -9 -43 -12 -83 -8 -126 36 -167 120 -110 36 24 115
122 105 131 -14 14 -68 -15 -114 -63 l-53 -54 0 66 c0 40 -6 78 -15 95 -17 33
-21 35 -31 18z"/>
<path d="M4217 3250 c-12 -18 -17 -45 -17 -100 l-1 -75 -37 42 c-37 42 -96 83
-120 83 -9 0 -9 -7 3 -30 41 -80 136 -151 175 -130 36 20 50 117 26 195 l-12
40 -17 -25z"/>
<path d="M385 3031 c-9 -68 17 -158 50 -173 41 -19 112 39 159 129 21 42 21
44 -13 32 -30 -11 -111 -90 -111 -109 0 -5 -4 -10 -10 -10 -5 0 -10 21 -10 48
0 48 -31 132 -49 132 -5 0 -12 -22 -16 -49z"/>
<path d="M4285 3056 c-10 -15 -23 -57 -29 -93 l-11 -65 -32 45 c-35 50 -74 80
-97 75 -41 -9 92 -173 134 -166 37 5 62 49 67 119 3 35 1 75 -5 88 l-9 25 -18
-28z"/>
<path d="M340 2829 c1 -105 50 -186 99 -160 39 22 98 101 115 159 19 60 -77
-10 -109 -81 l-24 -50 -6 39 c-10 60 -34 120 -55 139 -20 18 -20 17 -20 -46z"/>
<path d="M4321 2843 c-10 -21 -22 -63 -26 -93 l-7 -54 -24 45 c-22 45 -85 109
-105 109 -31 0 48 -144 95 -176 49 -31 88 10 107 111 17 92 -5 125 -40 58z"/>
<path d="M307 2638 c7 -61 44 -143 72 -158 44 -23 100 33 134 134 20 60 20 56
3 56 -21 0 -83 -77 -97 -118 l-12 -36 -22 63 c-21 58 -58 111 -76 111 -5 0 -5
-24 -2 -52z"/>
<path d="M4369 2670 c-22 -22 -46 -73 -65 -139 -3 -7 -18 14 -34 47 -28 55
-74 102 -87 88 -3 -3 3 -30 12 -60 20 -62 77 -136 105 -136 43 0 106 128 98
197 l-3 28 -26 -25z"/>
<path d="M296 2453 c19 -106 86 -188 134 -163 25 13 66 85 75 130 3 19 9 43
11 53 16 56 -68 -23 -86 -81 -6 -20 -14 -43 -16 -51 -3 -8 -20 18 -39 57 -29
61 -56 92 -80 92 -3 0 -3 -17 1 -37z"/>
<path d="M4195 2448 c9 -61 53 -147 81 -160 33 -15 68 10 98 70 27 53 43 132
28 132 -18 0 -72 -74 -89 -121 l-17 -47 -16 48 c-20 59 -44 96 -71 111 -20 10
-21 9 -14 -33z"/>
<path d="M489 2283 c-30 -32 -49 -81 -49 -127 0 -29 -2 -28 -31 24 -54 99
-118 147 -104 78 14 -67 75 -148 121 -162 44 -13 103 105 92 187 l-3 29 -26
-29z"/>
<path d="M4184 2264 c15 -106 47 -174 81 -174 41 0 135 127 135 183 0 44 -60
-6 -98 -83 -30 -59 -42 -61 -42 -4 0 34 -36 101 -61 115 -21 11 -21 10 -15
-37z"/>
<path d="M522 2110 c-25 -27 -42 -78 -42 -129 l0 -34 -38 54 c-35 50 -99 105
-110 94 -12 -12 34 -100 75 -140 52 -52 82 -57 112 -19 25 32 33 72 29 144
l-3 55 -23 -25z"/>
<path d="M4159 2093 c-4 -131 30 -204 86 -183 25 10 93 83 104 113 21 56 22
67 8 67 -18 0 -90 -77 -111 -119 -9 -17 -18 -31 -19 -31 -2 0 -4 24 -6 53 -3
82 -59 173 -62 100z"/>
<path d="M564 1924 c-10 -14 -20 -53 -23 -87 l-6 -62 -37 46 c-37 45 -101 89
-113 77 -22 -22 88 -151 140 -164 57 -14 75 18 75 137 0 83 -8 96 -36 53z"/>
<path d="M4107 1893 c-8 -62 6 -130 31 -155 19 -19 21 -19 56 -3 56 27 143
141 123 161 -11 12 -86 -44 -117 -88 -17 -22 -30 -37 -30 -32 -6 104 -22 164
-45 164 -7 0 -15 -19 -18 -47z"/>
<path d="M635 1757 c-19 -30 -25 -92 -12 -141 8 -27 4 -25 -53 27 -78 73 -146
94 -107 33 42 -63 127 -126 171 -126 40 0 58 111 32 195 l-12 40 -19 -28z"/>
<path d="M4039 1728 c-14 -55 -7 -144 14 -165 14 -14 22 -15 55 -5 39 12 116
83 141 130 30 56 -70 4 -135 -70 l-32 -36 6 64 c5 62 -10 124 -29 124 -4 0
-13 -19 -20 -42z"/>
<path d="M725 1600 c-24 -38 -24 -86 -1 -158 7 -20 0 -17 -47 21 -53 43 -122
75 -134 63 -20 -20 108 -126 170 -141 58 -15 80 48 52 151 -18 65 -28 83 -40
64z"/>
<path d="M3956 1563 c-19 -55 -21 -154 -4 -171 19 -19 49 -14 104 18 45 25
114 95 114 115 0 25 -112 -34 -157 -83 -26 -28 -28 -20 -12 47 10 43 -1 104
-21 116 -4 3 -15 -16 -24 -42z"/>
<path d="M2945 1548 c-15 -11 -24 -27 -21 -34 3 -9 -1 -14 -12 -14 -16 -1 -16
-1 1 -14 13 -10 17 -28 17 -74 0 -33 5 -64 10 -67 6 -4 10 20 10 64 0 74 4 83
25 54 11 -15 17 -15 39 -5 16 7 26 8 26 2 0 -6 -12 -15 -26 -20 -22 -9 -24
-13 -14 -25 7 -8 18 -15 25 -15 13 0 51 -38 44 -43 -2 -2 -23 -2 -47 1 -33 3
-46 10 -52 26 -8 19 -9 19 -9 -7 -1 -30 27 -47 78 -47 15 0 32 -5 39 -12 9 -9
12 7 12 74 0 74 3 87 18 91 14 4 14 6 -5 12 -13 4 -24 12 -25 19 -1 6 -4 -17
-7 -51 -5 -52 -8 -61 -21 -53 -12 7 -12 12 -2 22 6 6 12 20 12 29 0 22 -24 41
-36 29 -10 -10 -84 10 -84 22 0 4 11 15 25 24 22 14 27 15 56 0 18 -9 34 -14
36 -12 7 6 -25 27 -56 36 -24 7 -36 4 -56 -12z"/>
<path d="M1812 1548 c-7 -7 -12 -20 -12 -30 0 -21 -20 -24 -38 -6 -9 9 -12 9
-12 0 0 -8 -27 -12 -91 -12 -57 0 -88 -4 -84 -10 3 -5 17 -10 31 -10 13 0 24
-4 24 -10 0 -5 -7 -10 -15 -10 -20 0 -19 -19 0 -27 9 -3 22 2 30 13 8 11 15
15 15 10 0 -5 -8 -18 -17 -28 -12 -14 -14 -21 -5 -30 9 -9 17 -7 32 7 24 21
39 13 19 -11 -9 -11 -23 -14 -45 -11 -48 8 -33 -18 24 -43 26 -12 54 -28 64
-37 10 -9 18 -13 18 -9 0 4 -14 20 -31 36 -30 27 -31 30 -15 46 11 10 15 25
12 38 -7 30 4 66 20 66 11 0 14 -16 14 -64 0 -36 5 -68 10 -71 6 -4 10 20 10
64 0 64 2 71 20 71 18 0 20 -7 20 -64 0 -36 5 -68 10 -71 6 -4 10 20 10 64 0
58 3 70 18 74 14 4 14 6 -5 12 -30 9 -29 21 2 41 23 15 27 15 62 -5 l38 -22
-28 26 c-30 27 -84 34 -105 13z m-112 -78 c0 -5 -6 -10 -14 -10 -8 0 -18 5
-21 10 -3 6 3 10 14 10 12 0 21 -4 21 -10z"/>
<path d="M1961 1498 c-1 -27 -1 -27 -30 -11 -27 16 -30 16 -55 -1 -29 -19 -30
-43 -2 -38 14 3 16 -1 11 -17 -8 -27 16 -28 40 -1 24 27 35 17 35 -35 0 -24 5
-47 10 -50 6 -4 10 20 10 64 0 39 3 71 8 71 4 0 17 -22 30 -50 26 -56 50 -73
87 -64 53 13 41 104 -14 104 -34 0 -49 -26 -27 -48 16 -16 36 -9 36 14 0 19
16 18 24 -2 15 -39 -47 -60 -76 -26 -8 9 -19 29 -26 45 l-12 27 81 0 c51 0 78
4 74 10 -3 6 -48 10 -100 10 -65 0 -95 4 -98 13 -3 6 -6 0 -6 -15z m-36 -27
c7 -12 -12 -24 -25 -16 -11 7 -4 25 10 25 5 0 11 -4 15 -9z"/>
<path d="M2330 1489 c0 -6 16 -29 35 -51 36 -39 39 -59 7 -52 -24 6 -46 -11
-39 -30 8 -19 37 -21 61 -3 26 19 23 61 -8 97 -14 17 -26 36 -26 41 0 5 -7 9
-15 9 -8 0 -15 -5 -15 -11z"/>
<path d="M2440 1481 c0 -14 15 -26 50 -42 37 -17 50 -28 50 -43 0 -19 -3 -18
-24 9 -21 25 -28 28 -43 19 -24 -15 -31 -74 -8 -74 13 0 15 6 10 30 -4 17 -2
30 3 30 17 0 33 -27 26 -44 -9 -22 19 -21 39 2 34 37 12 83 -45 97 -16 4 -28
13 -28 21 0 8 -7 14 -15 14 -8 0 -15 -9 -15 -19z"/>
<path d="M2603 1479 c4 -13 7 -29 7 -36 0 -24 30 -44 50 -33 24 13 33 -2 16
-25 -21 -29 -60 -12 -85 37 -11 24 -21 35 -21 25 0 -23 29 -79 49 -94 51 -39
103 27 70 89 l-11 20 -14 -21 c-22 -31 -32 -26 -36 16 -2 20 -9 39 -17 41 -10
4 -12 -1 -8 -19z"/>
<path d="M2710 1487 c0 -18 27 -41 68 -57 20 -8 32 -19 32 -31 0 -16 -3 -15
-25 7 -20 20 -28 23 -45 14 -28 -15 -28 -70 0 -70 23 0 24 3 8 30 -15 24 -4
37 17 20 9 -7 13 -21 10 -31 -8 -25 16 -25 38 -1 34 37 12 83 -45 97 -16 4
-28 13 -28 21 0 8 -7 14 -15 14 -8 0 -15 -6 -15 -13z"/>
<path d="M2182 1443 c5 -25 28 -28 28 -4 0 12 -6 21 -16 21 -9 0 -14 -7 -12
-17z"/>
<path d="M819 1423 c-11 -27 -3 -85 17 -138 8 -19 7 -20 -16 -2 -43 30 -149
79 -166 75 -37 -7 97 -114 162 -128 63 -14 78 0 72 74 -5 53 -38 146 -53 146
-3 0 -10 -12 -16 -27z"/>
<path d="M3852 1402 c-44 -103 -38 -182 13 -182 49 0 195 90 195 121 0 26 -80
-1 -147 -50 -24 -17 -43 -29 -43 -27 0 2 7 23 15 46 19 53 19 100 2 124 -12
17 -15 14 -35 -32z"/>
<path d="M2182 1384 c4 -21 22 -23 26 -1 2 10 -3 17 -13 17 -10 0 -15 -6 -13
-16z"/>
<path d="M3126 1362 c-2 -4 -1 -14 4 -22 7 -11 12 -12 21 -3 6 6 8 16 5 22 -8
13 -23 14 -30 3z"/>
<path d="M940 1281 c-13 -26 -6 -70 21 -123 11 -21 16 -38 13 -38 -4 0 -30 14
-59 30 -29 17 -74 33 -101 36 l-49 5 37 -33 c53 -49 117 -78 171 -78 37 0 47
4 52 20 9 28 -3 76 -31 130 -38 74 -40 76 -54 51z"/>
<path d="M3746 1271 c-20 -22 -56 -121 -56 -155 0 -13 7 -29 15 -36 24 -20
105 3 171 46 56 37 70 51 60 61 -10 11 -101 -18 -148 -48 -27 -16 -48 -27 -48
-25 0 2 9 23 20 47 20 44 27 129 12 129 -5 0 -16 -8 -26 -19z"/>
<path d="M1710 1185 c0 -42 3 -55 15 -55 12 0 15 13 15 55 0 42 -3 55 -15 55
-12 0 -15 -13 -15 -55z"/>
<path d="M1830 1185 c0 -71 17 -71 22 0 2 39 -1 55 -9 55 -9 0 -13 -18 -13
-55z"/>
<path d="M1900 1185 c0 -30 5 -55 10 -55 6 0 10 25 10 55 0 30 -4 55 -10 55
-5 0 -10 -25 -10 -55z"/>
<path d="M1962 1183 l1 -58 6 48 6 49 30 -41 c32 -43 45 -51 45 -26 0 20 -59
85 -77 85 -9 0 -13 -15 -11 -57z"/>
<path d="M2182 1188 c32 -38 44 -47 46 -35 5 23 -48 85 -71 86 -15 1 -10 -10
25 -51z"/>
<path d="M2270 1221 c-14 -28 -13 -46 8 -70 17 -22 17 -21 17 33 0 59 -7 69
-25 37z"/>
<path d="M2345 1185 c0 -30 1 -55 2 -55 1 0 9 7 17 16 19 18 21 65 4 82 -20
20 -23 14 -23 -43z"/>
<path d="M2480 1185 c0 -30 5 -55 10 -55 6 0 10 25 10 55 0 30 -4 55 -10 55
-5 0 -10 -25 -10 -55z"/>
<path d="M2554 1224 c3 -9 6 -33 6 -55 0 -21 5 -39 10 -39 6 0 10 25 10 55 0
44 -3 55 -16 55 -11 0 -14 -5 -10 -16z"/>
<path d="M2660 1204 c0 -31 -3 -36 -20 -31 -11 3 -20 1 -20 -4 0 -5 9 -9 20
-9 11 0 20 -7 20 -15 0 -21 18 -19 22 2 5 29 -4 93 -13 93 -5 0 -9 -16 -9 -36z"/>
<path d="M2741 1226 c-9 -11 -9 -15 0 -18 8 -3 10 -11 6 -22 -4 -11 -13 -16
-22 -12 -8 3 -15 1 -15 -4 0 -6 9 -10 20 -10 12 0 20 -7 20 -17 1 -17 2 -17
13 -2 13 18 11 99 -3 99 -4 0 -13 -6 -19 -14z"/>
<path d="M2803 1213 c3 -15 1 -35 -3 -43 -5 -9 -5 -23 1 -31 7 -11 9 -10 9 7
0 11 3 24 7 27 11 11 32 -14 26 -30 -4 -10 -2 -14 4 -10 13 8 14 107 1 107 -5
0 -6 -4 -3 -10 11 -17 -5 -32 -21 -19 -7 6 -11 15 -8 20 3 5 0 9 -7 9 -7 0 -9
-10 -6 -27z"/>
<path d="M2883 1224 c-3 -8 -1 -20 5 -26 7 -7 7 -16 -1 -29 -9 -14 -9 -21 1
-31 9 -9 12 -6 12 16 0 33 23 31 28 -2 2 -12 8 -20 13 -17 17 11 9 41 -16 65
-13 12 -22 27 -19 31 3 5 0 9 -6 9 -6 0 -13 -7 -17 -16z"/>
<path d="M2930 1219 c0 -11 5 -17 10 -14 6 3 10 13 10 21 0 8 -4 14 -10 14 -5
0 -10 -9 -10 -21z"/>
<path d="M2080 1170 c0 -5 9 -10 20 -10 11 0 20 5 20 10 0 6 -9 10 -20 10 -11
0 -20 -4 -20 -10z"/>
<path d="M2390 1170 c0 -5 11 -10 25 -10 14 0 25 5 25 10 0 6 -11 10 -25 10
-14 0 -25 -4 -25 -10z"/>
<path d="M1073 1135 c-9 -25 5 -77 33 -118 l25 -39 -23 7 c-13 4 -39 16 -58
25 -44 22 -130 37 -130 22 0 -32 128 -91 197 -92 43 0 53 3 58 20 9 29 -8 81
-46 139 -36 54 -46 61 -56 36z"/>
<path d="M3606 1117 c-56 -73 -75 -170 -36 -182 41 -13 132 17 203 67 66 47
-14 45 -119 -2 l-62 -28 29 55 c46 88 35 156 -15 90z"/>
<path d="M1220 995 c0 -28 22 -76 52 -114 10 -13 17 -26 15 -27 -2 -2 -26 5
-53 16 -58 21 -137 30 -143 15 -2 -5 23 -23 55 -40 47 -24 72 -30 124 -30 62
0 65 1 68 25 4 35 -20 87 -63 138 -42 48 -55 52 -55 17z"/>
<path d="M3460 988 c-48 -59 -70 -103 -70 -139 0 -31 4 -38 25 -43 13 -3 45
-2 71 4 53 12 154 59 154 72 0 16 -89 8 -141 -12 -59 -24 -72 -20 -41 13 26
27 42 69 42 108 0 37 -8 36 -40 -3z"/>
<path d="M1386 752 l-39 -3 72 -73 72 -72 -58 -56 c-102 -97 -116 -88 141 -88
l226 0 0 135 0 135 555 0 555 0 0 -135 0 -135 227 0 c124 0 223 3 220 8 -4 4
-37 37 -74 74 l-67 67 74 70 c73 68 74 70 45 71 -151 2 -1919 4 -1949 2z"/>
<path d="M1943 702 c-16 -10 -35 -62 -23 -62 6 0 10 -24 10 -54 0 -30 4 -58
10 -61 6 -4 9 15 9 50 -2 61 2 71 27 61 13 -5 14 -9 4 -21 -15 -19 -8 -27 25
-31 30 -3 41 11 25 31 -9 11 -9 15 -1 15 6 0 11 4 11 8 0 5 -21 9 -46 10 -51
0 -59 4 -51 27 7 16 55 21 73 8 5 -5 1 0 -9 10 -20 18 -44 22 -64 9z"/>
<path d="M2273 686 c2 -6 20 -12 40 -14 20 -2 37 -7 37 -12 0 -15 -288 -12
-293 3 -8 23 -12 -38 -6 -93 l6 -55 1 63 c2 54 4 62 22 62 13 0 18 -5 14 -15
-9 -23 5 -38 23 -24 12 11 13 9 8 -14 -6 -23 -4 -27 13 -27 12 0 26 -8 31 -17
9 -16 10 -14 11 9 0 21 4 25 20 21 16 -4 20 0 20 17 0 13 -8 24 -20 27 -30 8
-24 23 10 23 32 0 37 -9 43 -85 3 -27 4 -20 5 23 l2 62 32 0 c29 0 30 -1 13
-13 -25 -19 -11 -41 16 -26 23 12 35 6 24 -10 -3 -6 -20 -11 -36 -11 -38 0
-31 -12 29 -45 43 -24 45 -24 25 -4 -20 20 -20 24 -7 45 14 21 14 24 -5 43
l-21 21 30 0 29 0 -22 24 c-23 24 -101 42 -94 22z m-138 -56 c3 -5 2 -10 -4
-10 -5 0 -13 5 -16 10 -3 6 -2 10 4 10 5 0 13 -4 16 -10z m35 0 c0 -5 -4 -10
-10 -10 -5 0 -10 5 -10 10 0 6 5 10 10 10 6 0 10 -4 10 -10z m-3 -35 c9 -25
-4 -29 -17 -6 -7 15 -7 21 0 21 6 0 13 -7 17 -15z"/>
<path d="M2601 663 c-1 -9 -24 -13 -82 -13 -79 0 -80 0 -74 -22 12 -42 41 -73
68 -73 14 0 33 -9 41 -20 14 -19 15 -15 16 43 0 83 23 80 31 -4 l6 -59 1 63
c2 52 5 62 20 62 15 0 18 -8 17 -51 0 -38 4 -54 17 -63 24 -15 49 8 29 27 -11
10 -14 9 -18 -1 -7 -19 -23 -3 -23 24 0 39 33 64 85 64 25 0 45 -4 45 -8 0 -4
-17 -8 -37 -7 -34 0 -38 -3 -41 -28 -4 -29 21 -48 40 -29 16 16 0 36 -18 21
-9 -7 -14 -8 -14 -1 0 18 20 24 35 12 11 -9 15 -9 15 -1 0 6 5 11 10 11 6 0
10 -18 10 -39 0 -22 5 -43 10 -46 6 -4 10 17 10 55 0 82 23 77 31 -6 l6 -59 1
63 c2 51 5 62 20 63 13 0 14 2 2 6 -8 3 -18 11 -22 17 -5 8 -8 7 -8 -1 0 -10
-29 -13 -109 -13 -78 0 -111 4 -114 13 -4 10 -6 10 -6 0z m-115 -40 c0 -11 6
-17 17 -17 11 1 17 -5 17 -18 0 -30 -31 -18 -53 20 -19 32 -19 32 1 32 13 0
19 -6 18 -17z m63 -15 c0 -32 -1 -32 -10 -8 -6 13 -15 28 -22 32 -8 5 -4 8 11
8 18 0 22 -5 21 -32z"/>
<path d="M2067 433 c155 -2 411 -2 570 0 158 1 32 2 -282 2 -314 0 -443 -1
-288 -2z"/>
</g>
</svg>
